<?xml version="1.0" encoding="UTF-8" standalone="no"?>
<!DOCTYPE svg PUBLIC "-//W3C//DTD SVG 1.1//EN" "http://www.w3.org/Graphics/SVG/1.1/DTD/svg11.dtd">
<svg width="100%" height="100%" viewBox="0 0 609 342" version="1.1" xmlns="http://www.w3.org/2000/svg" xmlns:xlink="http://www.w3.org/1999/xlink" xml:space="preserve" xmlns:serif="http://www.serif.com/" style="fill-rule:evenodd;clip-rule:evenodd;stroke-linejoin:round;stroke-miterlimit:2;">
    <rect x="0" y="0" width="609" height="342" style="fill:rgb(49,49,49);"/>
    <g>
        <clipPath id="_clip1">
            <rect x="0" y="0" width="609" height="171"/>
        </clipPath>
        <g clip-path="url(#_clip1)">
            <path d="M0,23L9.607,0L14.393,0L24,23L19.498,23L18.296,20.101L5.581,20.101L4.396,23L0,23ZM7.141,16.323L16.72,16.323L11.947,4.737L7.141,16.323Z" style="fill:white;fill-opacity:0.04;fill-rule:nonzero;"/>
            <path d="M39,23L48.607,0L53.393,0L63,23L58.498,23L57.296,20.101L44.581,20.101L43.396,23L39,23ZM46.141,16.323L55.72,16.323L50.947,4.737L46.141,16.323Z" style="fill:white;fill-opacity:0.04;fill-rule:nonzero;"/>
            <path d="M78,23L87.607,0L92.393,0L102,23L97.498,23L96.296,20.101L83.581,20.101L82.396,23L78,23ZM85.141,16.323L94.72,16.323L89.947,4.737L85.141,16.323Z" style="fill:white;fill-opacity:0.04;fill-rule:nonzero;"/>
            <path d="M117,23L126.607,0L131.393,0L141,23L136.498,23L135.296,20.101L122.581,20.101L121.396,23L117,23ZM124.141,16.323L133.72,16.323L128.947,4.737L124.141,16.323Z" style="fill:white;fill-opacity:0.04;fill-rule:nonzero;"/>
            <path d="M156,23L165.607,0L170.393,0L180,23L175.498,23L174.296,20.101L161.581,20.101L160.396,23L156,23ZM163.141,16.323L172.72,16.323L167.947,4.737L163.141,16.323Z" style="fill:white;fill-opacity:0.04;fill-rule:nonzero;"/>
            <path d="M195,23L204.607,0L209.393,0L219,23L214.498,23L213.296,20.101L200.581,20.101L199.396,23L195,23ZM202.141,16.323L211.72,16.323L206.947,4.737L202.141,16.323Z" style="fill:white;fill-opacity:0.04;fill-rule:nonzero;"/>
            <path d="M234,23L243.607,0L248.393,0L258,23L253.498,23L252.296,20.101L239.581,20.101L238.396,23L234,23ZM241.141,16.323L250.72,16.323L245.947,4.737L241.141,16.323Z" style="fill:white;fill-opacity:0.04;fill-rule:nonzero;"/>
            <path d="M273,23L282.607,0L287.393,0L297,23L292.498,23L291.296,20.101L278.581,20.101L277.396,23L273,23ZM280.141,16.323L289.72,16.323L284.947,4.737L280.141,16.323Z" style="fill:white;fill-opacity:0.04;fill-rule:nonzero;"/>
            <path d="M312,23L321.607,0L326.393,0L336,23L331.498,23L330.296,20.101L317.581,20.101L316.396,23L312,23ZM319.141,16.323L328.72,16.323L323.947,4.737L319.141,16.323Z" style="fill:white;fill-opacity:0.04;fill-rule:nonzero;"/>
            <path d="M351,23L360.607,0L365.393,0L375,23L370.498,23L369.296,20.101L356.581,20.101L355.396,23L351,23ZM358.141,16.323L367.72,16.323L362.947,4.737L358.141,16.323Z" style="fill:white;fill-opacity:0.04;fill-rule:nonzero;"/>
            <path d="M390,23L399.607,0L404.393,0L414,23L409.498,23L408.296,20.101L395.581,20.101L394.396,23L390,23ZM397.141,16.323L406.72,16.323L401.947,4.737L397.141,16.323Z" style="fill:white;fill-opacity:0.04;fill-rule:nonzero;"/>
            <path d="M429,23L438.607,0L443.393,0L453,23L448.498,23L447.296,20.101L434.581,20.101L433.396,23L429,23ZM436.141,16.323L445.72,16.323L440.947,4.737L436.141,16.323Z" style="fill:white;fill-opacity:0.04;fill-rule:nonzero;"/>
            <path d="M468,23L477.607,0L482.393,0L492,23L487.498,23L486.296,20.101L473.581,20.101L472.396,23L468,23ZM475.141,16.323L484.72,16.323L479.947,4.737L475.141,16.323Z" style="fill:white;fill-opacity:0.04;fill-rule:nonzero;"/>
            <path d="M507,23L516.607,0L521.393,0L531,23L526.498,23L525.296,20.101L512.581,20.101L511.396,23L507,23ZM514.141,16.323L523.72,16.323L518.947,4.737L514.141,16.323Z" style="fill:white;fill-opacity:0.04;fill-rule:nonzero;"/>
            <path d="M546,23L555.607,0L560.393,0L570,23L565.498,23L564.296,20.101L551.581,20.101L550.396,23L546,23ZM553.141,16.323L562.72,16.323L557.947,4.737L553.141,16.323Z" style="fill:white;fill-opacity:0.04;fill-rule:nonzero;"/>
            <path d="M585,23L594.607,0L599.393,0L609,23L604.498,23L603.296,20.101L590.581,20.101L589.396,23L585,23ZM592.141,16.323L601.72,16.323L596.947,4.737L592.141,16.323Z" style="fill:white;fill-opacity:0.04;fill-rule:nonzero;"/>
            <path d="M0,61L9.607,38L14.393,38L24,61L19.498,61L18.296,58.101L5.581,58.101L4.396,61L0,61ZM7.141,54.323L16.72,54.323L11.947,42.737L7.141,54.323Z" style="fill:white;fill-opacity:0.04;fill-rule:nonzero;"/>
            <path d="M39,61L48.607,38L53.393,38L63,61L58.498,61L57.296,58.101L44.581,58.101L43.396,61L39,61ZM46.141,54.323L55.72,54.323L50.947,42.737L46.141,54.323Z" style="fill:white;fill-opacity:0.04;fill-rule:nonzero;"/>
            <path d="M78,61L87.607,38L92.393,38L102,61L97.498,61L96.296,58.101L83.581,58.101L82.396,61L78,61ZM85.141,54.323L94.72,54.323L89.947,42.737L85.141,54.323Z" style="fill:white;fill-opacity:0.04;fill-rule:nonzero;"/>
            <path d="M117,61L126.607,38L131.393,38L141,61L136.498,61L135.296,58.101L122.581,58.101L121.396,61L117,61ZM124.141,54.323L133.72,54.323L128.947,42.737L124.141,54.323Z" style="fill:white;fill-opacity:0.04;fill-rule:nonzero;"/>
            <path d="M156,61L165.607,38L170.393,38L180,61L175.498,61L174.296,58.101L161.581,58.101L160.396,61L156,61ZM163.141,54.323L172.72,54.323L167.947,42.737L163.141,54.323Z" style="fill:white;fill-opacity:0.04;fill-rule:nonzero;"/>
            <path d="M195,61L204.607,38L209.393,38L219,61L214.498,61L213.296,58.101L200.581,58.101L199.396,61L195,61ZM202.141,54.323L211.72,54.323L206.947,42.737L202.141,54.323Z" style="fill:white;fill-opacity:0.04;fill-rule:nonzero;"/>
            <path d="M234,61L243.607,38L248.393,38L258,61L253.498,61L252.296,58.101L239.581,58.101L238.396,61L234,61ZM241.141,54.323L250.72,54.323L245.947,42.737L241.141,54.323Z" style="fill:white;fill-opacity:0.04;fill-rule:nonzero;"/>
            <path d="M273,61L282.607,38L287.393,38L297,61L292.498,61L291.296,58.101L278.581,58.101L277.396,61L273,61ZM280.141,54.323L289.72,54.323L284.947,42.737L280.141,54.323Z" style="fill:white;fill-opacity:0.04;fill-rule:nonzero;"/>
            <path d="M312,61L321.607,38L326.393,38L336,61L331.498,61L330.296,58.101L317.581,58.101L316.396,61L312,61ZM319.141,54.323L328.72,54.323L323.947,42.737L319.141,54.323Z" style="fill:white;fill-opacity:0.04;fill-rule:nonzero;"/>
            <path d="M351,61L360.607,38L365.393,38L375,61L370.498,61L369.296,58.101L356.581,58.101L355.396,61L351,61ZM358.141,54.323L367.72,54.323L362.947,42.737L358.141,54.323Z" style="fill:white;fill-opacity:0.04;fill-rule:nonzero;"/>
            <path d="M390,61L399.607,38L404.393,38L414,61L409.498,61L408.296,58.101L395.581,58.101L394.396,61L390,61ZM397.141,54.323L406.72,54.323L401.947,42.737L397.141,54.323Z" style="fill:white;fill-opacity:0.04;fill-rule:nonzero;"/>
            <path d="M429,61L438.607,38L443.393,38L453,61L448.498,61L447.296,58.101L434.581,58.101L433.396,61L429,61ZM436.141,54.323L445.72,54.323L440.947,42.737L436.141,54.323Z" style="fill:white;fill-opacity:0.04;fill-rule:nonzero;"/>
            <path d="M468,61L477.607,38L482.393,38L492,61L487.498,61L486.296,58.101L473.581,58.101L472.396,61L468,61ZM475.141,54.323L484.72,54.323L479.947,42.737L475.141,54.323Z" style="fill:white;fill-opacity:0.04;fill-rule:nonzero;"/>
            <path d="M507,61L516.607,38L521.393,38L531,61L526.498,61L525.296,58.101L512.581,58.101L511.396,61L507,61ZM514.141,54.323L523.72,54.323L518.947,42.737L514.141,54.323Z" style="fill:white;fill-opacity:0.04;fill-rule:nonzero;"/>
            <path d="M546,61L555.607,38L560.393,38L570,61L565.498,61L564.296,58.101L551.581,58.101L550.396,61L546,61ZM553.141,54.323L562.72,54.323L557.947,42.737L553.141,54.323Z" style="fill:white;fill-opacity:0.04;fill-rule:nonzero;"/>
            <path d="M585,61L594.607,38L599.393,38L609,61L604.498,61L603.296,58.101L590.581,58.101L589.396,61L585,61ZM592.141,54.323L601.72,54.323L596.947,42.737L592.141,54.323Z" style="fill:white;fill-opacity:0.04;fill-rule:nonzero;"/>
            <path d="M0,99L9.607,76L14.393,76L24,99L19.498,99L18.296,96.101L5.581,96.101L4.396,99L0,99ZM7.141,92.323L16.72,92.323L11.947,80.737L7.141,92.323Z" style="fill:white;fill-opacity:0.04;fill-rule:nonzero;"/>
            <path d="M39,99L48.607,76L53.393,76L63,99L58.498,99L57.296,96.101L44.581,96.101L43.396,99L39,99ZM46.141,92.323L55.72,92.323L50.947,80.737L46.141,92.323Z" style="fill:white;fill-opacity:0.04;fill-rule:nonzero;"/>
            <path d="M78,99L87.607,76L92.393,76L102,99L97.498,99L96.296,96.101L83.581,96.101L82.396,99L78,99ZM85.141,92.323L94.72,92.323L89.947,80.737L85.141,92.323Z" style="fill:white;fill-opacity:0.04;fill-rule:nonzero;"/>
            <path d="M117,99L126.607,76L131.393,76L141,99L136.498,99L135.296,96.101L122.581,96.101L121.396,99L117,99ZM124.141,92.323L133.72,92.323L128.947,80.737L124.141,92.323Z" style="fill:white;fill-opacity:0.04;fill-rule:nonzero;"/>
            <path d="M156,99L165.607,76L170.393,76L180,99L175.498,99L174.296,96.101L161.581,96.101L160.396,99L156,99ZM163.141,92.323L172.72,92.323L167.947,80.737L163.141,92.323Z" style="fill:white;fill-opacity:0.04;fill-rule:nonzero;"/>
            <path d="M195,99L204.607,76L209.393,76L219,99L214.498,99L213.296,96.101L200.581,96.101L199.396,99L195,99ZM202.141,92.323L211.72,92.323L206.947,80.737L202.141,92.323Z" style="fill:white;fill-opacity:0.04;fill-rule:nonzero;"/>
            <path d="M234,99L243.607,76L248.393,76L258,99L253.498,99L252.296,96.101L239.581,96.101L238.396,99L234,99ZM241.141,92.323L250.72,92.323L245.947,80.737L241.141,92.323Z" style="fill:white;fill-opacity:0.04;fill-rule:nonzero;"/>
            <path d="M273,99L282.607,76L287.393,76L297,99L292.498,99L291.296,96.101L278.581,96.101L277.396,99L273,99ZM280.141,92.323L289.72,92.323L284.947,80.737L280.141,92.323Z" style="fill:white;fill-opacity:0.04;fill-rule:nonzero;"/>
            <path d="M312,99L321.607,76L326.393,76L336,99L331.498,99L330.296,96.101L317.581,96.101L316.396,99L312,99ZM319.141,92.323L328.72,92.323L323.947,80.737L319.141,92.323Z" style="fill:white;fill-opacity:0.04;fill-rule:nonzero;"/>
            <path d="M351,99L360.607,76L365.393,76L375,99L370.498,99L369.296,96.101L356.581,96.101L355.396,99L351,99ZM358.141,92.323L367.72,92.323L362.947,80.737L358.141,92.323Z" style="fill:white;fill-opacity:0.04;fill-rule:nonzero;"/>
            <path d="M390,99L399.607,76L404.393,76L414,99L409.498,99L408.296,96.101L395.581,96.101L394.396,99L390,99ZM397.141,92.323L406.72,92.323L401.947,80.737L397.141,92.323Z" style="fill:white;fill-opacity:0.04;fill-rule:nonzero;"/>
            <path d="M429,99L438.607,76L443.393,76L453,99L448.498,99L447.296,96.101L434.581,96.101L433.396,99L429,99ZM436.141,92.323L445.72,92.323L440.947,80.737L436.141,92.323Z" style="fill:white;fill-opacity:0.04;fill-rule:nonzero;"/>
            <path d="M468,99L477.607,76L482.393,76L492,99L487.498,99L486.296,96.101L473.581,96.101L472.396,99L468,99ZM475.141,92.323L484.72,92.323L479.947,80.737L475.141,92.323Z" style="fill:white;fill-opacity:0.04;fill-rule:nonzero;"/>
            <path d="M507,99L516.607,76L521.393,76L531,99L526.498,99L525.296,96.101L512.581,96.101L511.396,99L507,99ZM514.141,92.323L523.72,92.323L518.947,80.737L514.141,92.323Z" style="fill:white;fill-opacity:0.04;fill-rule:nonzero;"/>
            <path d="M546,99L555.607,76L560.393,76L570,99L565.498,99L564.296,96.101L551.581,96.101L550.396,99L546,99ZM553.141,92.323L562.72,92.323L557.947,80.737L553.141,92.323Z" style="fill:white;fill-opacity:0.04;fill-rule:nonzero;"/>
            <path d="M585,99L594.607,76L599.393,76L609,99L604.498,99L603.296,96.101L590.581,96.101L589.396,99L585,99ZM592.141,92.323L601.72,92.323L596.947,80.737L592.141,92.323Z" style="fill:white;fill-opacity:0.04;fill-rule:nonzero;"/>
            <path d="M0,137L9.607,114L14.393,114L24,137L19.498,137L18.296,134.101L5.581,134.101L4.396,137L0,137ZM7.141,130.323L16.72,130.323L11.947,118.737L7.141,130.323Z" style="fill:white;fill-opacity:0.04;fill-rule:nonzero;"/>
            <path d="M39,137L48.607,114L53.393,114L63,137L58.498,137L57.296,134.101L44.581,134.101L43.396,137L39,137ZM46.141,130.323L55.72,130.323L50.947,118.737L46.141,130.323Z" style="fill:white;fill-opacity:0.04;fill-rule:nonzero;"/>
            <path d="M78,137L87.607,114L92.393,114L102,137L97.498,137L96.296,134.101L83.581,134.101L82.396,137L78,137ZM85.141,130.323L94.72,130.323L89.947,118.737L85.141,130.323Z" style="fill:white;fill-opacity:0.04;fill-rule:nonzero;"/>
            <path d="M117,137L126.607,114L131.393,114L141,137L136.498,137L135.296,134.101L122.581,134.101L121.396,137L117,137ZM124.141,130.323L133.72,130.323L128.947,118.737L124.141,130.323Z" style="fill:white;fill-opacity:0.04;fill-rule:nonzero;"/>
            <path d="M156,137L165.607,114L170.393,114L180,137L175.498,137L174.296,134.101L161.581,134.101L160.396,137L156,137ZM163.141,130.323L172.72,130.323L167.947,118.737L163.141,130.323Z" style="fill:white;fill-opacity:0.04;fill-rule:nonzero;"/>
            <path d="M195,137L204.607,114L209.393,114L219,137L214.498,137L213.296,134.101L200.581,134.101L199.396,137L195,137ZM202.141,130.323L211.72,130.323L206.947,118.737L202.141,130.323Z" style="fill:white;fill-opacity:0.04;fill-rule:nonzero;"/>
            <path d="M234,137L243.607,114L248.393,114L258,137L253.498,137L252.296,134.101L239.581,134.101L238.396,137L234,137ZM241.141,130.323L250.72,130.323L245.947,118.737L241.141,130.323Z" style="fill:white;fill-opacity:0.04;fill-rule:nonzero;"/>
            <path d="M273,137L282.607,114L287.393,114L297,137L292.498,137L291.296,134.101L278.581,134.101L277.396,137L273,137ZM280.141,130.323L289.72,130.323L284.947,118.737L280.141,130.323Z" style="fill:white;fill-opacity:0.04;fill-rule:nonzero;"/>
            <path d="M312,137L321.607,114L326.393,114L336,137L331.498,137L330.296,134.101L317.581,134.101L316.396,137L312,137ZM319.141,130.323L328.72,130.323L323.947,118.737L319.141,130.323Z" style="fill:white;fill-opacity:0.04;fill-rule:nonzero;"/>
            <path d="M351,137L360.607,114L365.393,114L375,137L370.498,137L369.296,134.101L356.581,134.101L355.396,137L351,137ZM358.141,130.323L367.72,130.323L362.947,118.737L358.141,130.323Z" style="fill:white;fill-opacity:0.04;fill-rule:nonzero;"/>
            <path d="M390,137L399.607,114L404.393,114L414,137L409.498,137L408.296,134.101L395.581,134.101L394.396,137L390,137ZM397.141,130.323L406.72,130.323L401.947,118.737L397.141,130.323Z" style="fill:white;fill-opacity:0.04;fill-rule:nonzero;"/>
            <path d="M429,137L438.607,114L443.393,114L453,137L448.498,137L447.296,134.101L434.581,134.101L433.396,137L429,137ZM436.141,130.323L445.72,130.323L440.947,118.737L436.141,130.323Z" style="fill:white;fill-opacity:0.04;fill-rule:nonzero;"/>
            <path d="M468,137L477.607,114L482.393,114L492,137L487.498,137L486.296,134.101L473.581,134.101L472.396,137L468,137ZM475.141,130.323L484.72,130.323L479.947,118.737L475.141,130.323Z" style="fill:white;fill-opacity:0.04;fill-rule:nonzero;"/>
            <path d="M507,137L516.607,114L521.393,114L531,137L526.498,137L525.296,134.101L512.581,134.101L511.396,137L507,137ZM514.141,130.323L523.72,130.323L518.947,118.737L514.141,130.323Z" style="fill:white;fill-opacity:0.04;fill-rule:nonzero;"/>
            <path d="M546,137L555.607,114L560.393,114L570,137L565.498,137L564.296,134.101L551.581,134.101L550.396,137L546,137ZM553.141,130.323L562.72,130.323L557.947,118.737L553.141,130.323Z" style="fill:white;fill-opacity:0.04;fill-rule:nonzero;"/>
            <path d="M585,137L594.607,114L599.393,114L609,137L604.498,137L603.296,134.101L590.581,134.101L589.396,137L585,137ZM592.141,130.323L601.72,130.323L596.947,118.737L592.141,130.323Z" style="fill:white;fill-opacity:0.04;fill-rule:nonzero;"/>
            <path d="M0,175L9.607,152L14.393,152L24,175L19.498,175L18.296,172.101L5.581,172.101L4.396,175L0,175ZM7.141,168.323L16.72,168.323L11.947,156.737L7.141,168.323Z" style="fill:white;fill-opacity:0.04;fill-rule:nonzero;"/>
            <path d="M39,175L48.607,152L53.393,152L63,175L58.498,175L57.296,172.101L44.581,172.101L43.396,175L39,175ZM46.141,168.323L55.72,168.323L50.947,156.737L46.141,168.323Z" style="fill:white;fill-opacity:0.04;fill-rule:nonzero;"/>
            <path d="M78,175L87.607,152L92.393,152L102,175L97.498,175L96.296,172.101L83.581,172.101L82.396,175L78,175ZM85.141,168.323L94.72,168.323L89.947,156.737L85.141,168.323Z" style="fill:white;fill-opacity:0.04;fill-rule:nonzero;"/>
            <path d="M117,175L126.607,152L131.393,152L141,175L136.498,175L135.296,172.101L122.581,172.101L121.396,175L117,175ZM124.141,168.323L133.72,168.323L128.947,156.737L124.141,168.323Z" style="fill:white;fill-opacity:0.04;fill-rule:nonzero;"/>
            <path d="M156,175L165.607,152L170.393,152L180,175L175.498,175L174.296,172.101L161.581,172.101L160.396,175L156,175ZM163.141,168.323L172.72,168.323L167.947,156.737L163.141,168.323Z" style="fill:white;fill-opacity:0.04;fill-rule:nonzero;"/>
            <path d="M195,175L204.607,152L209.393,152L219,175L214.498,175L213.296,172.101L200.581,172.101L199.396,175L195,175ZM202.141,168.323L211.72,168.323L206.947,156.737L202.141,168.323Z" style="fill:white;fill-opacity:0.04;fill-rule:nonzero;"/>
            <path d="M234,175L243.607,152L248.393,152L258,175L253.498,175L252.296,172.101L239.581,172.101L238.396,175L234,175ZM241.141,168.323L250.72,168.323L245.947,156.737L241.141,168.323Z" style="fill:white;fill-opacity:0.04;fill-rule:nonzero;"/>
            <path d="M273,175L282.607,152L287.393,152L297,175L292.498,175L291.296,172.101L278.581,172.101L277.396,175L273,175ZM280.141,168.323L289.72,168.323L284.947,156.737L280.141,168.323Z" style="fill:white;fill-opacity:0.04;fill-rule:nonzero;"/>
            <path d="M312,175L321.607,152L326.393,152L336,175L331.498,175L330.296,172.101L317.581,172.101L316.396,175L312,175ZM319.141,168.323L328.72,168.323L323.947,156.737L319.141,168.323Z" style="fill:white;fill-opacity:0.04;fill-rule:nonzero;"/>
            <path d="M351,175L360.607,152L365.393,152L375,175L370.498,175L369.296,172.101L356.581,172.101L355.396,175L351,175ZM358.141,168.323L367.72,168.323L362.947,156.737L358.141,168.323Z" style="fill:white;fill-opacity:0.04;fill-rule:nonzero;"/>
            <path d="M390,175L399.607,152L404.393,152L414,175L409.498,175L408.296,172.101L395.581,172.101L394.396,175L390,175ZM397.141,168.323L406.72,168.323L401.947,156.737L397.141,168.323Z" style="fill:white;fill-opacity:0.04;fill-rule:nonzero;"/>
            <path d="M429,175L438.607,152L443.393,152L453,175L448.498,175L447.296,172.101L434.581,172.101L433.396,175L429,175ZM436.141,168.323L445.72,168.323L440.947,156.737L436.141,168.323Z" style="fill:white;fill-opacity:0.04;fill-rule:nonzero;"/>
            <path d="M468,175L477.607,152L482.393,152L492,175L487.498,175L486.296,172.101L473.581,172.101L472.396,175L468,175ZM475.141,168.323L484.72,168.323L479.947,156.737L475.141,168.323Z" style="fill:white;fill-opacity:0.04;fill-rule:nonzero;"/>
            <path d="M507,175L516.607,152L521.393,152L531,175L526.498,175L525.296,172.101L512.581,172.101L511.396,175L507,175ZM514.141,168.323L523.72,168.323L518.947,156.737L514.141,168.323Z" style="fill:white;fill-opacity:0.04;fill-rule:nonzero;"/>
            <path d="M546,175L555.607,152L560.393,152L570,175L565.498,175L564.296,172.101L551.581,172.101L550.396,175L546,175ZM553.141,168.323L562.72,168.323L557.947,156.737L553.141,168.323Z" style="fill:white;fill-opacity:0.04;fill-rule:nonzero;"/>
            <path d="M585,175L594.607,152L599.393,152L609,175L604.498,175L603.296,172.101L590.581,172.101L589.396,175L585,175ZM592.141,168.323L601.72,168.323L596.947,156.737L592.141,168.323Z" style="fill:white;fill-opacity:0.04;fill-rule:nonzero;"/>
            <path d="M0,213L9.607,190L14.393,190L24,213L19.498,213L18.296,210.101L5.581,210.101L4.396,213L0,213ZM7.141,206.323L16.72,206.323L11.947,194.737L7.141,206.323Z" style="fill:white;fill-opacity:0.04;fill-rule:nonzero;"/>
            <path d="M39,213L48.607,190L53.393,190L63,213L58.498,213L57.296,210.101L44.581,210.101L43.396,213L39,213ZM46.141,206.323L55.72,206.323L50.947,194.737L46.141,206.323Z" style="fill:white;fill-opacity:0.04;fill-rule:nonzero;"/>
            <path d="M78,213L87.607,190L92.393,190L102,213L97.498,213L96.296,210.101L83.581,210.101L82.396,213L78,213ZM85.141,206.323L94.72,206.323L89.947,194.737L85.141,206.323Z" style="fill:white;fill-opacity:0.04;fill-rule:nonzero;"/>
            <path d="M117,213L126.607,190L131.393,190L141,213L136.498,213L135.296,210.101L122.581,210.101L121.396,213L117,213ZM124.141,206.323L133.72,206.323L128.947,194.737L124.141,206.323Z" style="fill:white;fill-opacity:0.04;fill-rule:nonzero;"/>
            <path d="M156,213L165.607,190L170.393,190L180,213L175.498,213L174.296,210.101L161.581,210.101L160.396,213L156,213ZM163.141,206.323L172.72,206.323L167.947,194.737L163.141,206.323Z" style="fill:white;fill-opacity:0.04;fill-rule:nonzero;"/>
            <path d="M195,213L204.607,190L209.393,190L219,213L214.498,213L213.296,210.101L200.581,210.101L199.396,213L195,213ZM202.141,206.323L211.72,206.323L206.947,194.737L202.141,206.323Z" style="fill:white;fill-opacity:0.04;fill-rule:nonzero;"/>
            <path d="M234,213L243.607,190L248.393,190L258,213L253.498,213L252.296,210.101L239.581,210.101L238.396,213L234,213ZM241.141,206.323L250.72,206.323L245.947,194.737L241.141,206.323Z" style="fill:white;fill-opacity:0.04;fill-rule:nonzero;"/>
            <path d="M273,213L282.607,190L287.393,190L297,213L292.498,213L291.296,210.101L278.581,210.101L277.396,213L273,213ZM280.141,206.323L289.72,206.323L284.947,194.737L280.141,206.323Z" style="fill:white;fill-opacity:0.04;fill-rule:nonzero;"/>
            <path d="M312,213L321.607,190L326.393,190L336,213L331.498,213L330.296,210.101L317.581,210.101L316.396,213L312,213ZM319.141,206.323L328.72,206.323L323.947,194.737L319.141,206.323Z" style="fill:white;fill-opacity:0.04;fill-rule:nonzero;"/>
            <path d="M351,213L360.607,190L365.393,190L375,213L370.498,213L369.296,210.101L356.581,210.101L355.396,213L351,213ZM358.141,206.323L367.72,206.323L362.947,194.737L358.141,206.323Z" style="fill:white;fill-opacity:0.04;fill-rule:nonzero;"/>
            <path d="M390,213L399.607,190L404.393,190L414,213L409.498,213L408.296,210.101L395.581,210.101L394.396,213L390,213ZM397.141,206.323L406.72,206.323L401.947,194.737L397.141,206.323Z" style="fill:white;fill-opacity:0.04;fill-rule:nonzero;"/>
            <path d="M429,213L438.607,190L443.393,190L453,213L448.498,213L447.296,210.101L434.581,210.101L433.396,213L429,213ZM436.141,206.323L445.72,206.323L440.947,194.737L436.141,206.323Z" style="fill:white;fill-opacity:0.04;fill-rule:nonzero;"/>
            <path d="M468,213L477.607,190L482.393,190L492,213L487.498,213L486.296,210.101L473.581,210.101L472.396,213L468,213ZM475.141,206.323L484.72,206.323L479.947,194.737L475.141,206.323Z" style="fill:white;fill-opacity:0.04;fill-rule:nonzero;"/>
            <path d="M507,213L516.607,190L521.393,190L531,213L526.498,213L525.296,210.101L512.581,210.101L511.396,213L507,213ZM514.141,206.323L523.72,206.323L518.947,194.737L514.141,206.323Z" style="fill:white;fill-opacity:0.04;fill-rule:nonzero;"/>
            <path d="M546,213L555.607,190L560.393,190L570,213L565.498,213L564.296,210.101L551.581,210.101L550.396,213L546,213ZM553.141,206.323L562.72,206.323L557.947,194.737L553.141,206.323Z" style="fill:white;fill-opacity:0.04;fill-rule:nonzero;"/>
            <path d="M585,213L594.607,190L599.393,190L609,213L604.498,213L603.296,210.101L590.581,210.101L589.396,213L585,213ZM592.141,206.323L601.72,206.323L596.947,194.737L592.141,206.323Z" style="fill:white;fill-opacity:0.04;fill-rule:nonzero;"/>
            <path d="M0,251L9.607,228L14.393,228L24,251L19.498,251L18.296,248.101L5.581,248.101L4.396,251L0,251ZM7.141,244.323L16.72,244.323L11.947,232.737L7.141,244.323Z" style="fill:white;fill-opacity:0.04;fill-rule:nonzero;"/>
            <path d="M39,251L48.607,228L53.393,228L63,251L58.498,251L57.296,248.101L44.581,248.101L43.396,251L39,251ZM46.141,244.323L55.72,244.323L50.947,232.737L46.141,244.323Z" style="fill:white;fill-opacity:0.04;fill-rule:nonzero;"/>
            <path d="M78,251L87.607,228L92.393,228L102,251L97.498,251L96.296,248.101L83.581,248.101L82.396,251L78,251ZM85.141,244.323L94.72,244.323L89.947,232.737L85.141,244.323Z" style="fill:white;fill-opacity:0.04;fill-rule:nonzero;"/>
            <path d="M117,251L126.607,228L131.393,228L141,251L136.498,251L135.296,248.101L122.581,248.101L121.396,251L117,251ZM124.141,244.323L133.72,244.323L128.947,232.737L124.141,244.323Z" style="fill:white;fill-opacity:0.04;fill-rule:nonzero;"/>
            <path d="M156,251L165.607,228L170.393,228L180,251L175.498,251L174.296,248.101L161.581,248.101L160.396,251L156,251ZM163.141,244.323L172.72,244.323L167.947,232.737L163.141,244.323Z" style="fill:white;fill-opacity:0.04;fill-rule:nonzero;"/>
            <path d="M195,251L204.607,228L209.393,228L219,251L214.498,251L213.296,248.101L200.581,248.101L199.396,251L195,251ZM202.141,244.323L211.72,244.323L206.947,232.737L202.141,244.323Z" style="fill:white;fill-opacity:0.04;fill-rule:nonzero;"/>
            <path d="M234,251L243.607,228L248.393,228L258,251L253.498,251L252.296,248.101L239.581,248.101L238.396,251L234,251ZM241.141,244.323L250.72,244.323L245.947,232.737L241.141,244.323Z" style="fill:white;fill-opacity:0.04;fill-rule:nonzero;"/>
            <path d="M273,251L282.607,228L287.393,228L297,251L292.498,251L291.296,248.101L278.581,248.101L277.396,251L273,251ZM280.141,244.323L289.72,244.323L284.947,232.737L280.141,244.323Z" style="fill:white;fill-opacity:0.04;fill-rule:nonzero;"/>
            <path d="M312,251L321.607,228L326.393,228L336,251L331.498,251L330.296,248.101L317.581,248.101L316.396,251L312,251ZM319.141,244.323L328.72,244.323L323.947,232.737L319.141,244.323Z" style="fill:white;fill-opacity:0.04;fill-rule:nonzero;"/>
            <path d="M351,251L360.607,228L365.393,228L375,251L370.498,251L369.296,248.101L356.581,248.101L355.396,251L351,251ZM358.141,244.323L367.72,244.323L362.947,232.737L358.141,244.323Z" style="fill:white;fill-opacity:0.04;fill-rule:nonzero;"/>
            <path d="M390,251L399.607,228L404.393,228L414,251L409.498,251L408.296,248.101L395.581,248.101L394.396,251L390,251ZM397.141,244.323L406.72,244.323L401.947,232.737L397.141,244.323Z" style="fill:white;fill-opacity:0.04;fill-rule:nonzero;"/>
            <path d="M429,251L438.607,228L443.393,228L453,251L448.498,251L447.296,248.101L434.581,248.101L433.396,251L429,251ZM436.141,244.323L445.72,244.323L440.947,232.737L436.141,244.323Z" style="fill:white;fill-opacity:0.04;fill-rule:nonzero;"/>
            <path d="M468,251L477.607,228L482.393,228L492,251L487.498,251L486.296,248.101L473.581,248.101L472.396,251L468,251ZM475.141,244.323L484.72,244.323L479.947,232.737L475.141,244.323Z" style="fill:white;fill-opacity:0.04;fill-rule:nonzero;"/>
            <path d="M507,251L516.607,228L521.393,228L531,251L526.498,251L525.296,248.101L512.581,248.101L511.396,251L507,251ZM514.141,244.323L523.72,244.323L518.947,232.737L514.141,244.323Z" style="fill:white;fill-opacity:0.04;fill-rule:nonzero;"/>
            <path d="M546,251L555.607,228L560.393,228L570,251L565.498,251L564.296,248.101L551.581,248.101L550.396,251L546,251ZM553.141,244.323L562.72,244.323L557.947,232.737L553.141,244.323Z" style="fill:white;fill-opacity:0.04;fill-rule:nonzero;"/>
            <path d="M585,251L594.607,228L599.393,228L609,251L604.498,251L603.296,248.101L590.581,248.101L589.396,251L585,251ZM592.141,244.323L601.72,244.323L596.947,232.737L592.141,244.323Z" style="fill:white;fill-opacity:0.04;fill-rule:nonzero;"/>
            <path d="M0,289L9.607,266L14.393,266L24,289L19.498,289L18.296,286.101L5.581,286.101L4.396,289L0,289ZM7.141,282.323L16.72,282.323L11.947,270.737L7.141,282.323Z" style="fill:white;fill-opacity:0.04;fill-rule:nonzero;"/>
            <path d="M39,289L48.607,266L53.393,266L63,289L58.498,289L57.296,286.101L44.581,286.101L43.396,289L39,289ZM46.141,282.323L55.72,282.323L50.947,270.737L46.141,282.323Z" style="fill:white;fill-opacity:0.04;fill-rule:nonzero;"/>
            <path d="M78,289L87.607,266L92.393,266L102,289L97.498,289L96.296,286.101L83.581,286.101L82.396,289L78,289ZM85.141,282.323L94.72,282.323L89.947,270.737L85.141,282.323Z" style="fill:white;fill-opacity:0.04;fill-rule:nonzero;"/>
            <path d="M117,289L126.607,266L131.393,266L141,289L136.498,289L135.296,286.101L122.581,286.101L121.396,289L117,289ZM124.141,282.323L133.72,282.323L128.947,270.737L124.141,282.323Z" style="fill:white;fill-opacity:0.04;fill-rule:nonzero;"/>
            <path d="M156,289L165.607,266L170.393,266L180,289L175.498,289L174.296,286.101L161.581,286.101L160.396,289L156,289ZM163.141,282.323L172.72,282.323L167.947,270.737L163.141,282.323Z" style="fill:white;fill-opacity:0.04;fill-rule:nonzero;"/>
            <path d="M195,289L204.607,266L209.393,266L219,289L214.498,289L213.296,286.101L200.581,286.101L199.396,289L195,289ZM202.141,282.323L211.72,282.323L206.947,270.737L202.141,282.323Z" style="fill:white;fill-opacity:0.04;fill-rule:nonzero;"/>
            <path d="M234,289L243.607,266L248.393,266L258,289L253.498,289L252.296,286.101L239.581,286.101L238.396,289L234,289ZM241.141,282.323L250.72,282.323L245.947,270.737L241.141,282.323Z" style="fill:white;fill-opacity:0.04;fill-rule:nonzero;"/>
            <path d="M273,289L282.607,266L287.393,266L297,289L292.498,289L291.296,286.101L278.581,286.101L277.396,289L273,289ZM280.141,282.323L289.72,282.323L284.947,270.737L280.141,282.323Z" style="fill:white;fill-opacity:0.04;fill-rule:nonzero;"/>
            <path d="M312,289L321.607,266L326.393,266L336,289L331.498,289L330.296,286.101L317.581,286.101L316.396,289L312,289ZM319.141,282.323L328.72,282.323L323.947,270.737L319.141,282.323Z" style="fill:white;fill-opacity:0.04;fill-rule:nonzero;"/>
            <path d="M351,289L360.607,266L365.393,266L375,289L370.498,289L369.296,286.101L356.581,286.101L355.396,289L351,289ZM358.141,282.323L367.72,282.323L362.947,270.737L358.141,282.323Z" style="fill:white;fill-opacity:0.04;fill-rule:nonzero;"/>
            <path d="M390,289L399.607,266L404.393,266L414,289L409.498,289L408.296,286.101L395.581,286.101L394.396,289L390,289ZM397.141,282.323L406.72,282.323L401.947,270.737L397.141,282.323Z" style="fill:white;fill-opacity:0.04;fill-rule:nonzero;"/>
            <path d="M429,289L438.607,266L443.393,266L453,289L448.498,289L447.296,286.101L434.581,286.101L433.396,289L429,289ZM436.141,282.323L445.72,282.323L440.947,270.737L436.141,282.323Z" style="fill:white;fill-opacity:0.04;fill-rule:nonzero;"/>
            <path d="M468,289L477.607,266L482.393,266L492,289L487.498,289L486.296,286.101L473.581,286.101L472.396,289L468,289ZM475.141,282.323L484.72,282.323L479.947,270.737L475.141,282.323Z" style="fill:white;fill-opacity:0.04;fill-rule:nonzero;"/>
            <path d="M507,289L516.607,266L521.393,266L531,289L526.498,289L525.296,286.101L512.581,286.101L511.396,289L507,289ZM514.141,282.323L523.72,282.323L518.947,270.737L514.141,282.323Z" style="fill:white;fill-opacity:0.04;fill-rule:nonzero;"/>
            <path d="M546,289L555.607,266L560.393,266L570,289L565.498,289L564.296,286.101L551.581,286.101L550.396,289L546,289ZM553.141,282.323L562.72,282.323L557.947,270.737L553.141,282.323Z" style="fill:white;fill-opacity:0.04;fill-rule:nonzero;"/>
            <path d="M585,289L594.607,266L599.393,266L609,289L604.498,289L603.296,286.101L590.581,286.101L589.396,289L585,289ZM592.141,282.323L601.72,282.323L596.947,270.737L592.141,282.323Z" style="fill:white;fill-opacity:0.04;fill-rule:nonzero;"/>
            <path d="M0,327L9.607,304L14.393,304L24,327L19.498,327L18.296,324.101L5.581,324.101L4.396,327L0,327ZM7.141,320.323L16.72,320.323L11.947,308.737L7.141,320.323Z" style="fill:white;fill-opacity:0.04;fill-rule:nonzero;"/>
            <path d="M39,327L48.607,304L53.393,304L63,327L58.498,327L57.296,324.101L44.581,324.101L43.396,327L39,327ZM46.141,320.323L55.72,320.323L50.947,308.737L46.141,320.323Z" style="fill:white;fill-opacity:0.04;fill-rule:nonzero;"/>
            <path d="M78,327L87.607,304L92.393,304L102,327L97.498,327L96.296,324.101L83.581,324.101L82.396,327L78,327ZM85.141,320.323L94.72,320.323L89.947,308.737L85.141,320.323Z" style="fill:white;fill-opacity:0.04;fill-rule:nonzero;"/>
            <path d="M117,327L126.607,304L131.393,304L141,327L136.498,327L135.296,324.101L122.581,324.101L121.396,327L117,327ZM124.141,320.323L133.72,320.323L128.947,308.737L124.141,320.323Z" style="fill:white;fill-opacity:0.04;fill-rule:nonzero;"/>
            <path d="M156,327L165.607,304L170.393,304L180,327L175.498,327L174.296,324.101L161.581,324.101L160.396,327L156,327ZM163.141,320.323L172.72,320.323L167.947,308.737L163.141,320.323Z" style="fill:white;fill-opacity:0.04;fill-rule:nonzero;"/>
            <path d="M195,327L204.607,304L209.393,304L219,327L214.498,327L213.296,324.101L200.581,324.101L199.396,327L195,327ZM202.141,320.323L211.72,320.323L206.947,308.737L202.141,320.323Z" style="fill:white;fill-opacity:0.04;fill-rule:nonzero;"/>
            <path d="M234,327L243.607,304L248.393,304L258,327L253.498,327L252.296,324.101L239.581,324.101L238.396,327L234,327ZM241.141,320.323L250.72,320.323L245.947,308.737L241.141,320.323Z" style="fill:white;fill-opacity:0.04;fill-rule:nonzero;"/>
            <path d="M273,327L282.607,304L287.393,304L297,327L292.498,327L291.296,324.101L278.581,324.101L277.396,327L273,327ZM280.141,320.323L289.72,320.323L284.947,308.737L280.141,320.323Z" style="fill:white;fill-opacity:0.04;fill-rule:nonzero;"/>
            <path d="M312,327L321.607,304L326.393,304L336,327L331.498,327L330.296,324.101L317.581,324.101L316.396,327L312,327ZM319.141,320.323L328.72,320.323L323.947,308.737L319.141,320.323Z" style="fill:white;fill-opacity:0.04;fill-rule:nonzero;"/>
            <path d="M351,327L360.607,304L365.393,304L375,327L370.498,327L369.296,324.101L356.581,324.101L355.396,327L351,327ZM358.141,320.323L367.72,320.323L362.947,308.737L358.141,320.323Z" style="fill:white;fill-opacity:0.04;fill-rule:nonzero;"/>
            <path d="M390,327L399.607,304L404.393,304L414,327L409.498,327L408.296,324.101L395.581,324.101L394.396,327L390,327ZM397.141,320.323L406.72,320.323L401.947,308.737L397.141,320.323Z" style="fill:white;fill-opacity:0.04;fill-rule:nonzero;"/>
            <path d="M429,327L438.607,304L443.393,304L453,327L448.498,327L447.296,324.101L434.581,324.101L433.396,327L429,327ZM436.141,320.323L445.72,320.323L440.947,308.737L436.141,320.323Z" style="fill:white;fill-opacity:0.04;fill-rule:nonzero;"/>
            <path d="M468,327L477.607,304L482.393,304L492,327L487.498,327L486.296,324.101L473.581,324.101L472.396,327L468,327ZM475.141,320.323L484.72,320.323L479.947,308.737L475.141,320.323Z" style="fill:white;fill-opacity:0.04;fill-rule:nonzero;"/>
            <path d="M507,327L516.607,304L521.393,304L531,327L526.498,327L525.296,324.101L512.581,324.101L511.396,327L507,327ZM514.141,320.323L523.72,320.323L518.947,308.737L514.141,320.323Z" style="fill:white;fill-opacity:0.04;fill-rule:nonzero;"/>
            <path d="M546,327L555.607,304L560.393,304L570,327L565.498,327L564.296,324.101L551.581,324.101L550.396,327L546,327ZM553.141,320.323L562.72,320.323L557.947,308.737L553.141,320.323Z" style="fill:white;fill-opacity:0.04;fill-rule:nonzero;"/>
            <path d="M585,327L594.607,304L599.393,304L609,327L604.498,327L603.296,324.101L590.581,324.101L589.396,327L585,327ZM592.141,320.323L601.72,320.323L596.947,308.737L592.141,320.323Z" style="fill:white;fill-opacity:0.04;fill-rule:nonzero;"/>
        </g>
    </g>
    <g transform="matrix(1.14905e-17,-0.472988,2.88435,1.87969e-16,-133.035,204.917)">
        <rect x="31.538" y="46.123" width="401.701" height="211.14" style="fill:url(#_Linear2);"/>
    </g>
    <defs>
        <linearGradient id="_Linear2" x1="0" y1="0" x2="1" y2="0" gradientUnits="userSpaceOnUse" gradientTransform="matrix(401.701,0,0,211.14,31.5383,151.693)"><stop offset="0" style="stop-color:rgb(49,49,49);stop-opacity:1"/><stop offset="1" style="stop-color:rgb(49,49,49);stop-opacity:0"/></linearGradient>
    </defs>
</svg>
