<svg width="203" height="76" viewBox="0 0 203 76" fill="none" xmlns="http://www.w3.org/2000/svg">
<path d="M41.9002 55.4996C31.4002 55.4996 21.5002 53.8996 14.0002 51.0996C10.1002 49.5996 7.10017 47.8996 4.80017 45.8996C3.50017 44.7996 2.50021 43.5996 1.90021 42.2996C1.10021 40.7996 0.700195 39.2996 0.700195 37.7996C0.700195 36.2996 1.10021 34.6996 1.90021 33.2996C2.60021 31.9996 3.60017 30.7996 4.80017 29.6996C7.00017 27.6996 10.1002 25.9996 14.0002 24.4996C21.5002 21.6996 31.4002 20.0996 41.9002 20.0996C52.4002 20.0996 62.3002 21.6996 69.8002 24.4996C73.7002 25.9996 76.7002 27.6996 79.0002 29.6996C80.3002 30.7996 81.3002 31.9996 81.9002 33.2996C82.7002 34.7996 83.1002 36.2996 83.1002 37.7996C83.1002 39.2996 82.7002 40.8996 81.9002 42.2996C81.2002 43.5996 80.2002 44.7996 79.0002 45.8996C76.8002 47.8996 73.7002 49.5996 69.8002 51.0996C62.3002 53.8996 52.4002 55.4996 41.9002 55.4996ZM41.9002 23.5996C36.8002 23.5996 31.9002 23.9996 27.2002 24.6996C22.7002 25.3996 18.7002 26.3996 15.2002 27.6996C11.7002 28.9996 9.00016 30.4996 7.10016 32.1996C5.10016 33.9996 4.10016 35.7996 4.10016 37.6996C4.10016 39.5996 5.10016 41.4996 7.10016 43.1996C9.00016 44.8996 11.7002 46.3996 15.2002 47.6996C18.7002 48.9996 22.7002 49.9996 27.2002 50.6996C31.8002 51.3996 36.8002 51.7996 41.9002 51.7996C47.0002 51.7996 51.9002 51.3996 56.6002 50.6996C61.1002 49.9996 65.1002 48.9996 68.6002 47.6996C72.1002 46.3996 74.8002 44.8996 76.7002 43.1996C78.7002 41.3996 79.7002 39.5996 79.7002 37.6996C79.7002 35.7996 78.7002 33.8996 76.7002 32.1996C74.8002 30.4996 72.1002 28.9996 68.6002 27.6996C65.1002 26.3996 61.1002 25.3996 56.6002 24.6996C51.9002 23.8996 47.0002 23.5996 41.9002 23.5996Z" fill="#FBFAE0"/>
<path d="M25.7004 74.8002C25.6004 74.8002 25.5004 74.8002 25.4004 74.8002C23.7004 74.7002 22.2004 74.3002 20.9004 73.5002C19.6004 72.7002 18.4004 71.6002 17.6004 70.2002C16.9004 69.0002 16.3004 67.5002 16.0004 65.8002C15.4004 62.9002 15.5004 59.3002 16.2004 55.3002C17.6004 47.4002 21.3004 38.0002 26.6004 29.0002C31.9004 19.9002 38.3004 12.2002 44.6004 7.10022C47.8004 4.50022 50.9004 2.7002 53.7004 1.8002C55.3004 1.3002 56.9004 1.00022 58.3004 1.10022C60.0004 1.20022 61.5004 1.6002 62.8004 2.4002C64.1004 3.2002 65.3004 4.30022 66.1004 5.70022C66.8004 6.90022 67.4004 8.40022 67.7004 10.1002C68.3004 13.0002 68.2004 16.6002 67.5004 20.6002C66.1004 28.5002 62.4004 37.9002 57.1004 46.9002C51.8004 56.0002 45.4004 63.7002 39.1004 68.8002C35.9004 71.4002 32.8004 73.2002 30.0004 74.1002C28.5004 74.6002 27.0004 74.8002 25.7004 74.8002ZM22.6004 70.5002C24.2004 71.5002 26.3004 71.5002 28.8004 70.7002C31.2004 69.9002 33.9004 68.3002 36.8004 66.0002C39.7004 63.7002 42.6004 60.7002 45.5004 57.2002C48.5004 53.6002 51.3004 49.5002 53.9004 45.1002C56.5004 40.7002 58.7004 36.2002 60.4004 31.9002C62.1004 27.7002 63.2004 23.7002 63.9004 20.0002C64.5004 16.3002 64.6004 13.2002 64.1004 10.7002C63.6004 8.10022 62.5004 6.3002 60.9004 5.3002C59.3004 4.3002 57.2004 4.30022 54.7004 5.10022C52.3004 5.90022 49.6004 7.5002 46.7004 9.8002C43.8004 12.1002 40.9004 15.1002 38.0004 18.6002C35.0004 22.2002 32.2004 26.3002 29.6004 30.7002C27.0004 35.1002 24.8004 39.6002 23.1004 43.9002C21.4004 48.1002 20.3004 52.1002 19.6004 55.8002C19.0004 59.5002 18.9004 62.6002 19.4004 65.1002C19.9004 67.7002 21.0004 69.5002 22.6004 70.5002Z" fill="#23A278"/>
<path d="M56.8999 74.6001C55.3999 74.6001 53.8998 74.3001 52.2998 73.7001C49.4998 72.7001 46.4999 70.8001 43.3999 68.1001C37.3999 62.9001 31.2998 54.9001 26.2998 45.7001C21.2998 36.5001 17.9999 27.1001 16.8999 19.2001C16.2999 15.1001 16.3998 11.6001 17.0998 8.7001C17.4998 7.1001 18.0999 5.60009 18.8999 4.40009C19.7999 3.00009 20.8998 1.9001 22.2998 1.2001C23.6998 0.500104 25.1999 0.100098 26.8999 0.100098C28.2999 0.100098 29.8998 0.400092 31.4998 1.00009C34.2998 2.00009 37.2999 3.9001 40.3999 6.6001C46.3999 11.8001 52.4998 19.8001 57.4998 29.0001C62.4998 38.2001 65.7999 47.6001 66.8999 55.5001C67.4999 59.6001 67.3998 63.1001 66.6998 66.0001C66.2998 67.6001 65.6999 69.1001 64.8999 70.3001C63.9999 71.7001 62.8998 72.8001 61.4998 73.5001C60.0998 74.3001 58.5999 74.6001 56.8999 74.6001ZM59.7998 70.4001L60.5998 71.9001L59.7998 70.4001C61.4998 69.5001 62.5998 67.7001 63.1998 65.2001C63.7998 62.7001 63.7998 59.6001 63.2998 56.0001C62.7998 52.3001 61.7998 48.3001 60.2998 44.1001C58.6998 39.7001 56.6998 35.2001 54.2998 30.7001C51.8998 26.2001 49.1999 22.1001 46.3999 18.4001C43.5999 14.8001 40.7998 11.8001 37.9998 9.30008C35.1998 6.90008 32.5998 5.20009 30.1998 4.40009C27.6998 3.50009 25.5999 3.50009 23.8999 4.40009C22.1999 5.30009 21.0998 7.1001 20.4998 9.6001C19.8998 12.1001 19.8999 15.2001 20.3999 18.8001C20.8999 22.5001 21.8999 26.5001 23.3999 30.7001C24.9999 35.1001 26.9999 39.6001 29.3999 44.1001C31.7999 48.6001 34.4998 52.7001 37.2998 56.4001C40.0998 60.0001 42.8998 63.0001 45.6998 65.5001C48.4998 67.9001 51.0998 69.6001 53.4998 70.4001C55.9998 71.4001 58.0998 71.4001 59.7998 70.4001Z" fill="#ED5D26"/>
<path d="M41.8 44.1C45.2794 44.1 48.1 41.2794 48.1 37.8C48.1 34.3206 45.2794 31.5 41.8 31.5C38.3206 31.5 35.5 34.3206 35.5 37.8C35.5 41.2794 38.3206 44.1 41.8 44.1Z" fill="#51C9EE"/>
<path d="M98.0998 24.0999C97.8998 24.0999 97.6998 23.9999 97.4998 23.8999C97.2998 23.6999 97.2998 23.4999 97.2998 23.2999V2.19992C97.2998 1.99992 97.3998 1.79991 97.4998 1.59991C97.6998 1.39991 97.7998 1.3999 98.0998 1.3999H106.9C109.7 1.3999 111.9 1.9999 113.5 3.2999C115.1 4.5999 115.9 6.3999 115.9 8.7999C115.9 10.2999 115.5 11.5999 114.8 12.6999C114.1 13.7999 113.1 14.5999 111.9 15.0999L116.3 23.0999C116.4 23.1999 116.4 23.2999 116.4 23.4999C116.4 23.6999 116.3 23.7999 116.2 23.9999C116.1 24.0999 115.9 24.1999 115.7 24.1999H111.4C111 24.1999 110.7 24.0999 110.5 23.8999C110.3 23.6999 110.2 23.4999 110.1 23.2999L106.4 16.1999H103.1V23.3999C103.1 23.5999 103 23.7999 102.9 23.9999C102.7 24.1999 102.5 24.1999 102.3 24.1999H98.0998V24.0999ZM103.1 11.3999H106.8C107.8 11.3999 108.6 11.1999 109.1 10.6999C109.6 10.1999 109.9 9.49992 109.9 8.69992C109.9 7.89992 109.7 7.19992 109.2 6.69992C108.7 6.19992 107.9 5.8999 106.9 5.8999H103.2V11.3999H103.1Z" fill="white"/>
<path d="M120.4 24.0999C120.2 24.0999 120 23.9999 119.8 23.8999C119.6 23.6999 119.6 23.4999 119.6 23.2999V2.19992C119.6 1.99992 119.7 1.79991 119.8 1.59991C120 1.39991 120.1 1.3999 120.4 1.3999H135.6C135.8 1.3999 136 1.49991 136.2 1.59991C136.4 1.79991 136.4 1.89992 136.4 2.19992V5.2999C136.4 5.4999 136.3 5.6999 136.2 5.8999C136 6.0999 135.9 6.09991 135.6 6.09991H125.2V10.4999H134.8C135 10.4999 135.2 10.5999 135.4 10.6999C135.6 10.8999 135.6 11.0999 135.6 11.2999V14.0999C135.6 14.2999 135.5 14.4999 135.4 14.6999C135.3 14.8999 135.1 14.8999 134.8 14.8999H125.2V19.3999H135.8C136 19.3999 136.2 19.4999 136.4 19.5999C136.6 19.7999 136.6 19.8999 136.6 20.1999V23.2999C136.6 23.4999 136.5 23.6999 136.4 23.8999C136.2 24.0999 136.1 24.0999 135.8 24.0999H120.4Z" fill="white"/>
<path d="M138.8 24.0999C138.6 24.0999 138.5 23.9999 138.3 23.8999C138.2 23.7999 138.1 23.5999 138.1 23.3999C138.1 23.2999 138.1 23.1999 138.1 23.0999L145.7 2.2999C145.8 2.0999 145.9 1.89992 146.1 1.69992C146.3 1.49992 146.6 1.3999 147 1.3999H151.8C152.2 1.3999 152.5 1.49992 152.7 1.69992C152.9 1.89992 153 2.0999 153.1 2.2999L160.7 23.0999C160.7 23.1999 160.8 23.2999 160.8 23.3999C160.8 23.5999 160.7 23.6999 160.6 23.8999C160.5 23.9999 160.3 24.0999 160.1 24.0999H156.1C155.8 24.0999 155.5 23.9999 155.4 23.8999C155.2 23.6999 155.1 23.5999 155.1 23.4999L153.8 20.1999H145.1L143.9 23.4999C143.9 23.5999 143.8 23.7999 143.6 23.8999C143.4 24.0999 143.2 24.0999 142.8 24.0999H138.8ZM146.5 15.3999H152.5L149.5 6.7999L146.5 15.3999Z" fill="white"/>
<path d="M172.1 24.4C170.1 24.4 168.3 24.1 166.8 23.4C165.3 22.7 164.2 21.7 163.4 20.4C162.6 19.1 162.1 17.5 162.1 15.6C162.1 14.7 162.1 13.8 162.1 12.7C162.1 11.7 162.1 10.7 162.1 9.79999C162.2 7.89999 162.6 6.3 163.5 5C164.3 3.7 165.5 2.7 166.9 2C168.4 1.3 170.1 1 172.1 1C173.5 1 174.8 1.2 176.1 1.5C177.3 1.9 178.4 2.40001 179.3 3.10001C180.2 3.80001 180.9 4.60001 181.4 5.60001C181.9 6.60001 182.2 7.69999 182.2 8.89999C182.2 9.09999 182.2 9.29999 182 9.39999C181.9 9.49999 181.7 9.60001 181.5 9.60001H177.1C176.8 9.60001 176.6 9.49999 176.5 9.39999C176.3 9.29999 176.2 9.10001 176.1 8.70001C175.8 7.60001 175.3 6.79999 174.6 6.29999C173.9 5.89999 173.1 5.70001 172.1 5.70001C170.9 5.70001 170 6.00001 169.3 6.70001C168.6 7.40001 168.2 8.5 168.2 10C168.1 11.8 168.1 13.6 168.2 15.5C168.3 17 168.6 18.1 169.3 18.8C170 19.5 170.9 19.8 172.1 19.8C173.1 19.8 173.9 19.6 174.6 19.2C175.3 18.8 175.8 18 176.1 16.9C176.2 16.6 176.3 16.4 176.5 16.2C176.7 16.1 176.9 16 177.2 16H181.6C181.8 16 182 16.1 182.1 16.2C182.2 16.3 182.3 16.5 182.3 16.7C182.3 17.9 182 19 181.5 20C181 21 180.3 21.8 179.4 22.5C178.5 23.2 177.4 23.7 176.2 24.1C174.8 24.2 173.5 24.4 172.1 24.4Z" fill="white"/>
<path d="M191.2 24.0999C191 24.0999 190.8 23.9999 190.6 23.8999C190.4 23.6999 190.4 23.4999 190.4 23.2999V6.49991H184.6C184.4 6.49991 184.2 6.3999 184 6.2999C183.8 6.0999 183.8 5.89992 183.8 5.69992V2.19992C183.8 1.99992 183.9 1.79991 184 1.59991C184.2 1.39991 184.3 1.3999 184.6 1.3999H202.1C202.3 1.3999 202.5 1.49991 202.7 1.59991C202.9 1.79991 202.9 1.89992 202.9 2.19992V5.69992C202.9 5.89992 202.8 6.0999 202.7 6.2999C202.5 6.4999 202.4 6.49991 202.1 6.49991H196.3V23.2999C196.3 23.4999 196.2 23.6999 196.1 23.8999C195.9 24.0999 195.8 24.0999 195.5 24.0999H191.2Z" fill="white"/>
<path d="M98.0998 54.1004C97.8998 54.1004 97.6998 54.0004 97.4998 53.9004C97.2998 53.7004 97.2998 53.5004 97.2998 53.3004V32.2004C97.2998 32.0004 97.3998 31.8004 97.4998 31.6004C97.6998 31.4004 97.7998 31.4004 98.0998 31.4004H102.5C102.7 31.4004 102.9 31.5004 103.1 31.6004C103.3 31.8004 103.3 31.9004 103.3 32.2004V53.3004C103.3 53.5004 103.2 53.7004 103.1 53.9004C102.9 54.1004 102.7 54.1004 102.5 54.1004H98.0998Z" fill="white"/>
<path d="M108.5 54.1004C108.3 54.1004 108.1 54.0004 107.9 53.9004C107.7 53.7004 107.7 53.5004 107.7 53.3004V32.2004C107.7 32.0004 107.8 31.8004 107.9 31.6004C108.1 31.4004 108.2 31.4004 108.5 31.4004H111.9C112.3 31.4004 112.5 31.5004 112.7 31.6004C112.9 31.8004 113 31.9004 113 32.0004L120.9 44.5004V32.2004C120.9 32.0004 121 31.8004 121.1 31.6004C121.3 31.4004 121.4 31.4004 121.7 31.4004H125.6C125.8 31.4004 126 31.5004 126.2 31.6004C126.4 31.8004 126.4 31.9004 126.4 32.2004V53.3004C126.4 53.5004 126.3 53.7004 126.2 53.9004C126 54.1004 125.9 54.1004 125.6 54.1004H122.1C121.8 54.1004 121.5 54.0004 121.3 53.8004C121.1 53.6004 121 53.5004 121 53.4004L113.1 41.4004V53.2004C113.1 53.4004 113 53.6004 112.9 53.8004C112.7 54.0004 112.6 54.0004 112.3 54.0004H108.5V54.1004Z" fill="white"/>
<path d="M131.6 54.1004C131.4 54.1004 131.2 54.0004 131 53.9004C130.8 53.7004 130.8 53.5004 130.8 53.3004V32.2004C130.8 32.0004 130.9 31.8004 131 31.6004C131.2 31.4004 131.3 31.4004 131.6 31.4004H140C142.1 31.4004 143.9 31.7004 145.4 32.4004C146.9 33.1004 148 34.1004 148.8 35.4004C149.6 36.7004 150 38.3004 150.1 40.3004C150.1 41.3004 150.1 42.1004 150.1 42.8004C150.1 43.5004 150.1 44.3004 150.1 45.3004C150 47.3004 149.6 49.0004 148.8 50.3004C148 51.6004 146.9 52.6004 145.5 53.2004C144 53.8004 142.2 54.2004 140.1 54.2004H131.6V54.1004ZM136.7 49.5004H140.1C141 49.5004 141.8 49.4004 142.4 49.1004C143 48.8004 143.5 48.3004 143.8 47.7004C144.1 47.1004 144.3 46.3004 144.3 45.2004C144.3 44.6004 144.4 44.0004 144.4 43.5004C144.4 43.0004 144.4 42.5004 144.4 42.0004C144.4 41.5004 144.4 41.0004 144.3 40.3004C144.3 38.8004 143.9 37.8004 143.1 37.1004C142.4 36.4004 141.3 36.1004 139.9 36.1004H136.7V49.5004Z" fill="white"/>
<path d="M154.699 54.1004C154.499 54.1004 154.299 54.0004 154.099 53.9004C153.899 53.7004 153.899 53.5004 153.899 53.3004V32.2004C153.899 32.0004 153.999 31.8004 154.099 31.6004C154.299 31.4004 154.399 31.4004 154.699 31.4004H159.099C159.299 31.4004 159.499 31.5004 159.699 31.6004C159.899 31.8004 159.899 31.9004 159.899 32.2004V53.3004C159.899 53.5004 159.799 53.7004 159.699 53.9004C159.499 54.1004 159.299 54.1004 159.099 54.1004H154.699Z" fill="white"/>
<path d="M163 54.1004C162.8 54.1004 162.7 54.0004 162.5 53.9004C162.4 53.8004 162.3 53.6004 162.3 53.4004C162.3 53.3004 162.3 53.2004 162.3 53.1004L169.9 32.3004C170 32.1004 170.1 31.9004 170.3 31.7004C170.5 31.5004 170.8 31.4004 171.2 31.4004H176C176.4 31.4004 176.7 31.5004 176.9 31.7004C177.1 31.9004 177.2 32.1004 177.3 32.3004L184.9 53.1004C184.9 53.2004 185 53.3004 185 53.4004C185 53.6004 184.9 53.7004 184.8 53.9004C184.7 54.0004 184.5 54.1004 184.3 54.1004H180.3C180 54.1004 179.7 54.0004 179.6 53.9004C179.4 53.7004 179.3 53.6004 179.3 53.5004L178 50.2004H169.3L168.1 53.5004C168.1 53.6004 168 53.8004 167.8 53.9004C167.6 54.1004 167.4 54.1004 167 54.1004H163ZM170.6 45.5004H176.6L173.6 36.9004L170.6 45.5004Z" fill="white"/>
<path d="M99.9998 74.1994C99.1998 74.1994 98.5998 73.9994 98.0998 73.5994C97.5998 73.1994 97.3998 72.6994 97.2998 72.0994H98.2998C98.2998 72.4994 98.4998 72.7994 98.8998 72.9994C99.1998 73.1994 99.5998 73.2994 99.9998 73.2994C100.4 73.2994 100.8 73.1994 101 72.9994C101.3 72.7994 101.4 72.4994 101.4 72.1994C101.4 71.5994 101 71.1994 100.3 70.8994L99.1998 70.4994C98.5998 70.2994 98.1998 69.9994 97.8998 69.6994C97.5998 69.3994 97.4998 68.8994 97.4998 68.3994C97.4998 67.7994 97.6998 67.2994 98.1998 66.8994C98.5998 66.4994 99.1998 66.3994 99.8998 66.3994C100.6 66.3994 101.2 66.5994 101.6 66.9994C102 67.3994 102.3 67.8994 102.3 68.4994H101.3C101.2 68.0994 101 67.7994 100.8 67.5994C100.5 67.3994 100.2 67.2994 99.8998 67.2994C99.4998 67.2994 99.1998 67.3994 98.9998 67.5994C98.7998 67.7994 98.5998 67.9994 98.5998 68.3994C98.5998 68.7994 98.6998 68.9994 98.8998 69.1994C99.0998 69.3994 99.3998 69.4994 99.6998 69.6994L100.7 70.0994C101.3 70.2994 101.8 70.5994 102.1 70.9994C102.4 71.3994 102.6 71.7994 102.6 72.3994C102.6 72.9994 102.4 73.5994 101.9 73.8994C101.3 73.9994 100.7 74.1994 99.9998 74.1994Z" fill="white"/>
<path d="M104.6 74.0994V66.3994H109.1V67.3994H105.6V69.6994H108.4V70.6994H105.6V73.1994H109.1V74.1994H104.6V74.0994Z" fill="white"/>
<path d="M115.5 67.0998C116 67.5998 116.2 68.0998 116.2 68.7998C116.2 69.4998 116 70.0998 115.5 70.4998C115 70.9998 114.4 71.1998 113.6 71.1998H112.3V73.9998H111.3V66.2998H113.6C114.4 66.3998 115 66.6998 115.5 67.0998ZM114.8 69.9998C115.1 69.6998 115.2 69.3998 115.2 68.8998C115.2 68.4998 115.1 68.0998 114.8 67.7998C114.5 67.4998 114.1 67.3998 113.6 67.3998H112.3V70.3998H113.6C114.1 70.3998 114.5 70.1998 114.8 69.9998Z" fill="white"/>
<path d="M125.6 73.1996V74.0996H120.6V73.6996C120.6 73.3996 120.6 73.1996 120.7 72.8996C120.8 72.6996 120.9 72.4996 121 72.2996C121.1 72.0996 121.3 71.8996 121.5 71.6996C121.7 71.4996 121.9 71.2996 122 71.1996C122.1 71.0996 122.3 70.9996 122.6 70.6996C122.9 70.4996 123.1 70.3996 123.2 70.2996C123.7 69.8996 124.1 69.5996 124.3 69.3996C124.5 69.0996 124.6 68.7996 124.6 68.3996C124.6 67.9996 124.5 67.6996 124.2 67.3996C123.9 67.1996 123.6 66.9996 123.2 66.9996C122.8 66.9996 122.4 67.0996 122.1 67.3996C121.8 67.6996 121.6 67.9996 121.6 68.4996H120.6C120.6 67.7996 120.8 67.1996 121.3 66.7996C121.8 66.3996 122.4 66.0996 123.1 66.0996C123.8 66.0996 124.3 66.2996 124.8 66.6996C125.2 67.0996 125.5 67.5996 125.5 68.3996C125.5 68.8996 125.4 69.3996 125.1 69.7996C124.8 70.1996 124.4 70.5996 123.7 71.0996C123.6 71.1996 123.4 71.2996 123.2 71.4996C123 71.6996 122.8 71.7996 122.7 71.8996C122.6 71.9996 122.4 72.0996 122.3 72.1996C122.2 72.2996 122 72.4996 122 72.5996C121.9 72.6996 121.9 72.8996 121.8 73.0996H125.6V73.1996Z" fill="white"/>
<path d="M130 74.1998C129.2 74.1998 128.6 73.9998 128.1 73.4998C127.6 72.9998 127.3 72.4998 127.3 71.7998H128.2C128.2 72.2998 128.4 72.5998 128.8 72.8998C129.1 73.1998 129.6 73.2998 130 73.2998C130.4 73.2998 130.8 73.1998 131.1 72.8998C131.4 72.6998 131.5 72.2998 131.5 71.8998C131.5 71.3998 131.4 71.0998 131.1 70.8998C130.8 70.6998 130.4 70.5998 129.9 70.5998H129.3V69.6998H129.9C130.3 69.6998 130.6 69.5998 130.9 69.3998C131.2 69.1998 131.3 68.8998 131.3 68.4998C131.3 68.0998 131.2 67.7998 130.9 67.5998C130.6 67.3998 130.3 67.2998 129.9 67.2998C129.4 67.2998 129.1 67.3998 128.8 67.6998C128.5 67.9998 128.3 68.2998 128.3 68.7998H127.3C127.3 68.0998 127.5 67.4998 128 66.9998C128.5 66.5998 129.1 66.2998 129.8 66.2998C130.5 66.2998 131 66.4998 131.5 66.8998C131.9 67.2998 132.2 67.7998 132.2 68.3998C132.2 68.7998 132.1 69.0998 131.9 69.3998C131.7 69.6998 131.5 69.8998 131.2 70.0998C131.6 70.2998 131.9 70.4998 132.1 70.7998C132.3 71.0998 132.4 71.4998 132.4 71.8998C132.4 72.5998 132.2 73.0998 131.7 73.4998C131.3 73.9998 130.7 74.1998 130 74.1998Z" fill="white"/>
<path d="M134.399 71.4996V70.5996H137.199V71.4996H134.399Z" fill="white"/>
<path d="M143.7 73.1996V74.0996H138.7V73.6996C138.7 73.3996 138.7 73.1996 138.8 72.8996C138.9 72.6996 139 72.4996 139.1 72.2996C139.2 72.0996 139.4 71.8996 139.6 71.6996C139.8 71.4996 140 71.2996 140.1 71.1996C140.2 71.0996 140.4 70.9996 140.7 70.6996C141 70.4996 141.2 70.3996 141.3 70.2996C141.8 69.8996 142.2 69.5996 142.4 69.3996C142.6 69.0996 142.7 68.7996 142.7 68.3996C142.7 67.9996 142.6 67.6996 142.3 67.3996C142 67.1996 141.7 66.9996 141.3 66.9996C140.9 66.9996 140.5 67.0996 140.2 67.3996C139.9 67.6996 139.7 67.9996 139.7 68.4996H138.7C138.7 67.7996 138.9 67.1996 139.4 66.7996C139.9 66.3996 140.5 66.0996 141.2 66.0996C141.9 66.0996 142.4 66.2996 142.9 66.6996C143.3 67.0996 143.6 67.5996 143.6 68.3996C143.6 68.8996 143.5 69.3996 143.2 69.7996C142.9 70.1996 142.5 70.5996 141.8 71.0996C141.7 71.1996 141.5 71.2996 141.3 71.4996C141.1 71.6996 140.9 71.7996 140.8 71.8996C140.7 71.9996 140.5 72.0996 140.4 72.1996C140.3 72.2996 140.1 72.4996 140.1 72.5996C140 72.6996 140 72.8996 139.9 73.0996H143.7V73.1996Z" fill="white"/>
<path d="M148.999 74.1V72H144.899V71.3L149.099 66.5H149.899V71.2H150.999V72.1H149.899V74.2H148.999V74.1ZM146.099 71.1H148.999V67.8L146.099 71.1Z" fill="white"/>
<path d="M154.099 73.8992L152.999 75.6992H152.399L153.099 74.1992C152.799 74.0992 152.699 73.7992 152.699 73.4992C152.699 73.2992 152.799 73.0992 152.899 72.8992C153.099 72.6992 153.199 72.6992 153.499 72.6992C153.699 72.6992 153.899 72.7992 154.099 72.8992C154.299 72.9992 154.299 73.2992 154.299 73.4992C154.199 73.4992 154.199 73.6992 154.099 73.8992Z" fill="white"/>
<path d="M164.2 73.1996V74.0996H159.2V73.6996C159.2 73.3996 159.2 73.1996 159.3 72.8996C159.4 72.6996 159.5 72.4996 159.6 72.2996C159.7 72.0996 159.9 71.8996 160.1 71.6996C160.3 71.4996 160.5 71.2996 160.6 71.1996C160.7 71.0996 160.9 70.9996 161.2 70.6996C161.5 70.4996 161.7 70.3996 161.8 70.2996C162.3 69.8996 162.7 69.5996 162.9 69.3996C163.1 69.0996 163.2 68.7996 163.2 68.3996C163.2 67.9996 163.1 67.6996 162.8 67.3996C162.5 67.1996 162.2 66.9996 161.8 66.9996C161.4 66.9996 161 67.0996 160.7 67.3996C160.4 67.6996 160.2 67.9996 160.2 68.4996H159.2C159.2 67.7996 159.4 67.1996 159.9 66.7996C160.4 66.3996 161 66.0996 161.7 66.0996C162.4 66.0996 162.9 66.2996 163.4 66.6996C163.8 67.0996 164.1 67.5996 164.1 68.3996C164.1 68.8996 164 69.3996 163.7 69.7996C163.4 70.1996 163 70.5996 162.3 71.0996C162.2 71.1996 162 71.2996 161.8 71.4996C161.6 71.6996 161.4 71.7996 161.3 71.8996C161.2 71.9996 161 72.0996 160.9 72.1996C160.8 72.2996 160.6 72.4996 160.6 72.5996C160.5 72.6996 160.5 72.8996 160.4 73.0996H164.2V73.1996Z" fill="white"/>
<path d="M168.8 74.1998C168 74.1998 167.3 73.8998 166.8 73.3998C166.3 72.8998 166 72.1998 166 71.2998V69.1998C166 68.3998 166.3 67.6998 166.8 67.0998C167.3 66.5998 168 66.2998 168.7 66.2998C169.4 66.2998 170.1 66.5998 170.7 67.0998C171.2 67.5998 171.5 68.2998 171.5 69.1998V71.2998C171.5 72.0998 171.2 72.7998 170.7 73.3998C170.2 73.8998 169.5 74.1998 168.8 74.1998ZM168.8 73.2998C169.3 73.2998 169.8 73.0998 170.1 72.7998C170.4 72.3998 170.6 71.9998 170.6 71.3998V69.2998C170.6 68.6998 170.4 68.1998 170.1 67.8998C169.8 67.4998 169.3 67.3998 168.8 67.3998C168.3 67.3998 167.8 67.5998 167.5 67.8998C167.2 68.2998 167 68.6998 167 69.2998V71.3998C167 71.9998 167.2 72.4998 167.5 72.7998C167.8 73.0998 168.2 73.2998 168.8 73.2998Z" fill="white"/>
<path d="M178.3 73.1996V74.0996H173.3V73.6996C173.3 73.3996 173.3 73.1996 173.4 72.8996C173.5 72.6996 173.6 72.4996 173.7 72.2996C173.8 72.0996 174 71.8996 174.2 71.6996C174.4 71.4996 174.6 71.2996 174.7 71.1996C174.8 71.0996 175 70.9996 175.3 70.6996C175.6 70.4996 175.8 70.3996 175.9 70.2996C176.4 69.8996 176.8 69.5996 177 69.3996C177.2 69.0996 177.3 68.7996 177.3 68.3996C177.3 67.9996 177.2 67.6996 176.9 67.3996C176.6 67.1996 176.3 66.9996 175.9 66.9996C175.5 66.9996 175.1 67.0996 174.8 67.3996C174.5 67.6996 174.3 67.9996 174.3 68.4996H173.3C173.3 67.7996 173.5 67.1996 174 66.7996C174.5 66.3996 175.1 66.0996 175.8 66.0996C176.5 66.0996 177 66.2996 177.5 66.6996C177.9 67.0996 178.2 67.5996 178.2 68.3996C178.2 68.8996 178.1 69.3996 177.8 69.7996C177.5 70.1996 177.1 70.5996 176.4 71.0996C176.3 71.1996 176.1 71.2996 175.9 71.4996C175.7 71.6996 175.5 71.7996 175.4 71.8996C175.3 71.9996 175.1 72.0996 175 72.1996C174.9 72.2996 174.7 72.4996 174.7 72.5996C174.6 72.6996 174.6 72.8996 174.5 73.0996H178.3V73.1996Z" fill="white"/>
<path d="M184.899 73.1996V74.0996H179.899V73.6996C179.899 73.3996 179.899 73.1996 179.999 72.8996C180.099 72.6996 180.199 72.4996 180.299 72.2996C180.399 72.0996 180.599 71.8996 180.799 71.6996C180.999 71.4996 181.199 71.2996 181.299 71.1996C181.399 71.0996 181.599 70.9996 181.899 70.6996C182.199 70.4996 182.399 70.3996 182.499 70.2996C182.999 69.8996 183.399 69.5996 183.599 69.3996C183.799 69.0996 183.899 68.7996 183.899 68.3996C183.899 67.9996 183.799 67.6996 183.499 67.3996C183.199 67.1996 182.899 66.9996 182.499 66.9996C182.099 66.9996 181.699 67.0996 181.399 67.3996C181.099 67.6996 180.899 67.9996 180.899 68.4996H179.899C179.899 67.7996 180.099 67.1996 180.599 66.7996C181.099 66.3996 181.699 66.0996 182.399 66.0996C183.099 66.0996 183.599 66.2996 184.099 66.6996C184.499 67.0996 184.799 67.5996 184.799 68.3996C184.799 68.8996 184.699 69.3996 184.399 69.7996C184.099 70.1996 183.699 70.5996 182.999 71.0996C182.899 71.1996 182.699 71.2996 182.499 71.4996C182.299 71.6996 182.099 71.7996 181.999 71.8996C181.899 71.9996 181.699 72.0996 181.599 72.1996C181.499 72.2996 181.299 72.4996 181.299 72.5996C181.199 72.6996 181.199 72.8996 181.099 73.0996H184.899V73.1996Z" fill="white"/>
</svg>
